<?xml version="1.0" encoding="UTF-8" standalone="no"?>
<!DOCTYPE svg PUBLIC "-//W3C//DTD SVG 1.1//EN" "http://www.w3.org/Graphics/SVG/1.1/DTD/svg11.dtd">
<svg width="100%" height="100%" viewBox="0 0 128 16" version="1.1" xmlns="http://www.w3.org/2000/svg" xmlns:xlink="http://www.w3.org/1999/xlink" xml:space="preserve" xmlns:serif="http://www.serif.com/" style="fill-rule:evenodd;clip-rule:evenodd;stroke-linejoin:round;stroke-miterlimit:2;">
    <g id="green_computing" transform="matrix(1.013556,0,0,1.126761,0,0)">
        <rect x="0" y="0" width="126.288" height="14.2" style="fill:none;"/>
        <g transform="matrix(0.986625,0,0,0.8875,-474.018062,-162.128501)">
            <path d="M500.86,193.588C500.225,193.588 499.688,193.468 499.248,193.228C498.808,192.988 498.473,192.652 498.244,192.22C498.015,191.788 497.9,191.281 497.9,190.7C497.9,190.252 497.968,189.848 498.104,189.488C498.24,189.128 498.437,188.821 498.696,188.568C498.955,188.315 499.269,188.119 499.64,187.98C500.011,187.841 500.431,187.772 500.9,187.772C501.188,187.772 501.476,187.804 501.764,187.868C502.052,187.932 502.329,188.039 502.596,188.188C502.708,188.252 502.784,188.333 502.824,188.432C502.864,188.531 502.875,188.635 502.856,188.744C502.837,188.853 502.795,188.949 502.728,189.032C502.661,189.115 502.576,189.168 502.472,189.192C502.368,189.216 502.249,189.196 502.116,189.132C501.94,189.036 501.753,188.965 501.556,188.92C501.359,188.875 501.143,188.852 500.908,188.852C500.529,188.852 500.212,188.923 499.956,189.064C499.7,189.205 499.509,189.413 499.384,189.688C499.259,189.963 499.196,190.3 499.196,190.7C499.196,191.303 499.341,191.759 499.632,192.068C499.923,192.377 500.353,192.532 500.924,192.532C501.116,192.532 501.313,192.513 501.516,192.476C501.719,192.439 501.919,192.385 502.116,192.316L501.884,192.82L501.884,191.284L501.164,191.284C501.004,191.284 500.881,191.244 500.796,191.164C500.711,191.084 500.668,190.975 500.668,190.836C500.668,190.692 500.711,190.581 500.796,190.504C500.881,190.427 501.004,190.388 501.164,190.388L502.42,190.388C502.58,190.388 502.701,190.431 502.784,190.516C502.867,190.601 502.908,190.724 502.908,190.884L502.908,192.74C502.908,192.879 502.881,192.996 502.828,193.092C502.775,193.188 502.684,193.257 502.556,193.3C502.316,193.385 502.047,193.455 501.748,193.508C501.449,193.561 501.153,193.588 500.86,193.588Z" style="fill-rule:nonzero;"/>
        </g>
        <g transform="matrix(0.986625,0,0,0.8875,-474.018062,-162.128501)">
            <path d="M507.292,193.572C507.089,193.572 506.935,193.516 506.828,193.404C506.721,193.292 506.668,193.135 506.668,192.932L506.668,188.492C506.668,188.284 506.723,188.127 506.832,188.02C506.941,187.913 507.097,187.86 507.3,187.86L509.244,187.86C509.873,187.86 510.359,188.012 510.7,188.316C511.041,188.62 511.212,189.044 511.212,189.588C511.212,189.94 511.135,190.244 510.98,190.5C510.825,190.756 510.603,190.953 510.312,191.092C510.021,191.231 509.665,191.3 509.244,191.3L509.308,191.164L509.636,191.164C509.86,191.164 510.056,191.219 510.224,191.328C510.392,191.437 510.537,191.604 510.66,191.828L511.156,192.748C511.231,192.881 511.265,193.012 511.26,193.14C511.255,193.268 511.207,193.372 511.116,193.452C511.025,193.532 510.892,193.572 510.716,193.572C510.54,193.572 510.397,193.535 510.288,193.46C510.179,193.385 510.081,193.271 509.996,193.116L509.228,191.7C509.148,191.551 509.051,191.449 508.936,191.396C508.821,191.343 508.681,191.316 508.516,191.316L507.908,191.316L507.908,192.932C507.908,193.135 507.856,193.292 507.752,193.404C507.648,193.516 507.495,193.572 507.292,193.572ZM507.908,190.42L509.02,190.42C509.351,190.42 509.6,190.353 509.768,190.22C509.936,190.087 510.02,189.887 510.02,189.62C510.02,189.359 509.936,189.161 509.768,189.028C509.6,188.895 509.351,188.828 509.02,188.828L507.908,188.828L507.908,190.42Z" style="fill-rule:nonzero;"/>
        </g>
        <g transform="matrix(0.986625,0,0,0.8875,-474.018062,-162.128501)">
            <path d="M515.116,193.5C514.908,193.5 514.748,193.444 514.636,193.332C514.524,193.22 514.468,193.06 514.468,192.852L514.468,188.508C514.468,188.3 514.524,188.14 514.636,188.028C514.748,187.916 514.908,187.86 515.116,187.86L517.908,187.86C518.068,187.86 518.189,187.901 518.272,187.984C518.355,188.067 518.396,188.185 518.396,188.34C518.396,188.5 518.355,188.621 518.272,188.704C518.189,188.787 518.068,188.828 517.908,188.828L515.652,188.828L515.652,190.148L517.724,190.148C517.889,190.148 518.013,190.189 518.096,190.272C518.179,190.355 518.22,190.476 518.22,190.636C518.22,190.796 518.179,190.917 518.096,191C518.013,191.083 517.889,191.124 517.724,191.124L515.652,191.124L515.652,192.532L517.908,192.532C518.068,192.532 518.189,192.573 518.272,192.656C518.355,192.739 518.396,192.857 518.396,193.012C518.396,193.172 518.355,193.293 518.272,193.376C518.189,193.459 518.068,193.5 517.908,193.5L515.116,193.5Z" style="fill-rule:nonzero;"/>
        </g>
        <g transform="matrix(0.986625,0,0,0.8875,-474.018062,-162.128501)">
            <path d="M522.188,193.5C521.98,193.5 521.82,193.444 521.708,193.332C521.596,193.22 521.54,193.06 521.54,192.852L521.54,188.508C521.54,188.3 521.596,188.14 521.708,188.028C521.82,187.916 521.98,187.86 522.188,187.86L524.98,187.86C525.14,187.86 525.261,187.901 525.344,187.984C525.427,188.067 525.468,188.185 525.468,188.34C525.468,188.5 525.427,188.621 525.344,188.704C525.261,188.787 525.14,188.828 524.98,188.828L522.724,188.828L522.724,190.148L524.796,190.148C524.961,190.148 525.085,190.189 525.168,190.272C525.251,190.355 525.292,190.476 525.292,190.636C525.292,190.796 525.251,190.917 525.168,191C525.085,191.083 524.961,191.124 524.796,191.124L522.724,191.124L522.724,192.532L524.98,192.532C525.14,192.532 525.261,192.573 525.344,192.656C525.427,192.739 525.468,192.857 525.468,193.012C525.468,193.172 525.427,193.293 525.344,193.376C525.261,193.459 525.14,193.5 524.98,193.5L522.188,193.5Z" style="fill-rule:nonzero;"/>
        </g>
        <g transform="matrix(0.986625,0,0,0.8875,-474.018062,-162.128501)">
            <path d="M529.188,193.572C529.001,193.572 528.859,193.52 528.76,193.416C528.661,193.312 528.612,193.164 528.612,192.972L528.612,188.412C528.612,188.209 528.661,188.055 528.76,187.948C528.859,187.841 528.991,187.788 529.156,187.788C529.3,187.788 529.411,187.816 529.488,187.872C529.565,187.928 529.655,188.02 529.756,188.148L532.564,191.724L532.348,191.724L532.348,188.38C532.348,188.193 532.397,188.048 532.496,187.944C532.595,187.84 532.737,187.788 532.924,187.788C533.111,187.788 533.253,187.84 533.352,187.944C533.451,188.048 533.5,188.193 533.5,188.38L533.5,192.996C533.5,193.172 533.455,193.312 533.364,193.416C533.273,193.52 533.151,193.572 532.996,193.572C532.847,193.572 532.728,193.543 532.64,193.484C532.552,193.425 532.457,193.332 532.356,193.204L529.556,189.628L529.764,189.628L529.764,192.972C529.764,193.164 529.716,193.312 529.62,193.416C529.524,193.52 529.38,193.572 529.188,193.572Z" style="fill-rule:nonzero;"/>
        </g>
        <g transform="matrix(0.986625,0,0,0.8875,-474.018062,-162.128501)">
            <path d="M544.068,193.588C543.46,193.588 542.94,193.468 542.508,193.228C542.076,192.988 541.744,192.651 541.512,192.216C541.28,191.781 541.164,191.268 541.164,190.676C541.164,190.233 541.229,189.835 541.36,189.48C541.491,189.125 541.681,188.821 541.932,188.568C542.183,188.315 542.488,188.119 542.848,187.98C543.208,187.841 543.615,187.772 544.068,187.772C544.335,187.772 544.605,187.805 544.88,187.872C545.155,187.939 545.393,188.033 545.596,188.156C545.729,188.231 545.82,188.324 545.868,188.436C545.916,188.548 545.931,188.66 545.912,188.772C545.893,188.884 545.848,188.98 545.776,189.06C545.704,189.14 545.615,189.191 545.508,189.212C545.401,189.233 545.281,189.209 545.148,189.14C544.988,189.044 544.82,188.975 544.644,188.932C544.468,188.889 544.289,188.868 544.108,188.868C543.751,188.868 543.451,188.939 543.208,189.08C542.965,189.221 542.783,189.425 542.66,189.692C542.537,189.959 542.476,190.287 542.476,190.676C542.476,191.06 542.537,191.388 542.66,191.66C542.783,191.932 542.965,192.139 543.208,192.28C543.451,192.421 543.751,192.492 544.108,192.492C544.279,192.492 544.453,192.471 544.632,192.428C544.811,192.385 544.983,192.319 545.148,192.228C545.287,192.159 545.411,192.133 545.52,192.152C545.629,192.171 545.72,192.219 545.792,192.296C545.864,192.373 545.909,192.465 545.928,192.572C545.947,192.679 545.935,192.785 545.892,192.892C545.849,192.999 545.769,193.089 545.652,193.164C545.455,193.297 545.212,193.401 544.924,193.476C544.636,193.551 544.351,193.588 544.068,193.588Z" style="fill-rule:nonzero;"/>
        </g>
        <g transform="matrix(0.986625,0,0,0.8875,-474.018062,-162.128501)">
            <path d="M551.652,193.588C551.097,193.588 550.611,193.467 550.192,193.224C549.773,192.981 549.448,192.641 549.216,192.204C548.984,191.767 548.868,191.257 548.868,190.676C548.868,190.233 548.933,189.835 549.064,189.48C549.195,189.125 549.383,188.821 549.628,188.568C549.873,188.315 550.168,188.119 550.512,187.98C550.856,187.841 551.236,187.772 551.652,187.772C552.217,187.772 552.708,187.892 553.124,188.132C553.54,188.372 553.864,188.709 554.096,189.144C554.328,189.579 554.444,190.087 554.444,190.668C554.444,191.111 554.377,191.511 554.244,191.868C554.111,192.225 553.921,192.532 553.676,192.788C553.431,193.044 553.137,193.241 552.796,193.38C552.455,193.519 552.073,193.588 551.652,193.588ZM551.652,192.532C551.967,192.532 552.235,192.459 552.456,192.312C552.677,192.165 552.848,191.952 552.968,191.672C553.088,191.392 553.148,191.06 553.148,190.676C553.148,190.089 553.017,189.635 552.756,189.312C552.495,188.989 552.127,188.828 551.652,188.828C551.343,188.828 551.076,188.9 550.852,189.044C550.628,189.188 550.457,189.399 550.34,189.676C550.223,189.953 550.164,190.287 550.164,190.676C550.164,191.257 550.295,191.712 550.556,192.04C550.817,192.368 551.183,192.532 551.652,192.532Z" style="fill-rule:nonzero;"/>
        </g>
        <g transform="matrix(0.986625,0,0,0.8875,-474.018062,-162.128501)">
            <path d="M558.212,193.572C558.031,193.572 557.892,193.521 557.796,193.42C557.7,193.319 557.652,193.177 557.652,192.996L557.652,188.364C557.652,188.183 557.704,188.041 557.808,187.94C557.912,187.839 558.055,187.788 558.236,187.788C558.396,187.788 558.523,187.819 558.616,187.88C558.709,187.941 558.796,188.047 558.876,188.196L560.724,191.572L560.452,191.572L562.3,188.196C562.38,188.047 562.467,187.941 562.56,187.88C562.653,187.819 562.777,187.788 562.932,187.788C563.113,187.788 563.253,187.839 563.352,187.94C563.451,188.041 563.5,188.183 563.5,188.364L563.5,192.996C563.5,193.177 563.452,193.319 563.356,193.42C563.26,193.521 563.121,193.572 562.94,193.572C562.759,193.572 562.619,193.521 562.52,193.42C562.421,193.319 562.372,193.177 562.372,192.996L562.372,189.756L562.548,189.756L561.06,192.42C560.996,192.521 560.928,192.597 560.856,192.648C560.784,192.699 560.689,192.724 560.572,192.724C560.455,192.724 560.359,192.697 560.284,192.644C560.209,192.591 560.143,192.516 560.084,192.42L558.58,189.748L558.772,189.748L558.772,192.996C558.772,193.177 558.725,193.319 558.632,193.42C558.539,193.521 558.399,193.572 558.212,193.572Z" style="fill-rule:nonzero;"/>
        </g>
        <g transform="matrix(0.986625,0,0,0.8875,-474.018062,-162.128501)">
            <path d="M567.5,193.572C567.297,193.572 567.143,193.516 567.036,193.404C566.929,193.292 566.876,193.135 566.876,192.932L566.876,188.492C566.876,188.284 566.931,188.127 567.04,188.02C567.149,187.913 567.305,187.86 567.508,187.86L569.452,187.86C570.081,187.86 570.567,188.019 570.908,188.336C571.249,188.653 571.42,189.095 571.42,189.66C571.42,190.225 571.249,190.668 570.908,190.988C570.567,191.308 570.081,191.468 569.452,191.468L568.116,191.468L568.116,192.932C568.116,193.135 568.064,193.292 567.96,193.404C567.856,193.516 567.703,193.572 567.5,193.572ZM568.116,190.508L569.244,190.508C569.564,190.508 569.808,190.436 569.976,190.292C570.144,190.148 570.228,189.937 570.228,189.66C570.228,189.383 570.144,189.175 569.976,189.036C569.808,188.897 569.564,188.828 569.244,188.828L568.116,188.828L568.116,190.508Z" style="fill-rule:nonzero;"/>
        </g>
        <g transform="matrix(0.986625,0,0,0.8875,-474.018062,-162.128501)">
            <path d="M576.836,193.588C576.436,193.588 576.083,193.536 575.776,193.432C575.469,193.328 575.212,193.175 575.004,192.972C574.796,192.769 574.64,192.515 574.536,192.208C574.432,191.901 574.38,191.545 574.38,191.14L574.38,188.42C574.38,188.212 574.433,188.055 574.54,187.948C574.647,187.841 574.801,187.788 575.004,187.788C575.201,187.788 575.353,187.841 575.46,187.948C575.567,188.055 575.62,188.212 575.62,188.42L575.62,191.148C575.62,191.607 575.724,191.952 575.932,192.184C576.14,192.416 576.441,192.532 576.836,192.532C577.231,192.532 577.531,192.416 577.736,192.184C577.941,191.952 578.044,191.607 578.044,191.148L578.044,188.42C578.044,188.212 578.097,188.055 578.204,187.948C578.311,187.841 578.463,187.788 578.66,187.788C578.857,187.788 579.008,187.841 579.112,187.948C579.216,188.055 579.268,188.212 579.268,188.42L579.268,191.14C579.268,191.679 579.176,192.131 578.992,192.496C578.808,192.861 578.536,193.135 578.176,193.316C577.816,193.497 577.369,193.588 576.836,193.588Z" style="fill-rule:nonzero;"/>
        </g>
        <g transform="matrix(0.986625,0,0,0.8875,-474.018062,-162.128501)">
            <path d="M584.564,193.572C584.361,193.572 584.207,193.516 584.1,193.404C583.993,193.292 583.94,193.135 583.94,192.932L583.94,188.884L582.524,188.884C582.359,188.884 582.231,188.839 582.14,188.748C582.049,188.657 582.004,188.532 582.004,188.372C582.004,188.207 582.049,188.08 582.14,187.992C582.231,187.904 582.359,187.86 582.524,187.86L586.596,187.86C586.761,187.86 586.889,187.904 586.98,187.992C587.071,188.08 587.116,188.207 587.116,188.372C587.116,188.532 587.071,188.657 586.98,188.748C586.889,188.839 586.761,188.884 586.596,188.884L585.18,188.884L585.18,192.932C585.18,193.135 585.128,193.292 585.024,193.404C584.92,193.516 584.767,193.572 584.564,193.572Z" style="fill-rule:nonzero;"/>
        </g>
        <g transform="matrix(0.986625,0,0,0.8875,-474.018062,-162.128501)">
            <path d="M590.508,193.572C590.305,193.572 590.151,193.516 590.044,193.404C589.937,193.292 589.884,193.135 589.884,192.932L589.884,188.428C589.884,188.225 589.937,188.068 590.044,187.956C590.151,187.844 590.305,187.788 590.508,187.788C590.705,187.788 590.857,187.844 590.964,187.956C591.071,188.068 591.124,188.225 591.124,188.428L591.124,192.932C591.124,193.135 591.072,193.292 590.968,193.404C590.864,193.516 590.711,193.572 590.508,193.572Z" style="fill-rule:nonzero;"/>
        </g>
        <g transform="matrix(0.986625,0,0,0.8875,-474.018062,-162.128501)">
            <path d="M595.068,193.572C594.881,193.572 594.739,193.52 594.64,193.416C594.541,193.312 594.492,193.164 594.492,192.972L594.492,188.412C594.492,188.209 594.541,188.055 594.64,187.948C594.739,187.841 594.871,187.788 595.036,187.788C595.18,187.788 595.291,187.816 595.368,187.872C595.445,187.928 595.535,188.02 595.636,188.148L598.444,191.724L598.228,191.724L598.228,188.38C598.228,188.193 598.277,188.048 598.376,187.944C598.475,187.84 598.617,187.788 598.804,187.788C598.991,187.788 599.133,187.84 599.232,187.944C599.331,188.048 599.38,188.193 599.38,188.38L599.38,192.996C599.38,193.172 599.335,193.312 599.244,193.416C599.153,193.52 599.031,193.572 598.876,193.572C598.727,193.572 598.608,193.543 598.52,193.484C598.432,193.425 598.337,193.332 598.236,193.204L595.436,189.628L595.644,189.628L595.644,192.972C595.644,193.164 595.596,193.312 595.5,193.416C595.404,193.52 595.26,193.572 595.068,193.572Z" style="fill-rule:nonzero;"/>
        </g>
        <g transform="matrix(0.986625,0,0,0.8875,-474.018062,-162.128501)">
            <path d="M605.54,193.588C604.905,193.588 604.368,193.468 603.928,193.228C603.488,192.988 603.153,192.652 602.924,192.22C602.695,191.788 602.58,191.281 602.58,190.7C602.58,190.252 602.648,189.848 602.784,189.488C602.92,189.128 603.117,188.821 603.376,188.568C603.635,188.315 603.949,188.119 604.32,187.98C604.691,187.841 605.111,187.772 605.58,187.772C605.868,187.772 606.156,187.804 606.444,187.868C606.732,187.932 607.009,188.039 607.276,188.188C607.388,188.252 607.464,188.333 607.504,188.432C607.544,188.531 607.555,188.635 607.536,188.744C607.517,188.853 607.475,188.949 607.408,189.032C607.341,189.115 607.256,189.168 607.152,189.192C607.048,189.216 606.929,189.196 606.796,189.132C606.62,189.036 606.433,188.965 606.236,188.92C606.039,188.875 605.823,188.852 605.588,188.852C605.209,188.852 604.892,188.923 604.636,189.064C604.38,189.205 604.189,189.413 604.064,189.688C603.939,189.963 603.876,190.3 603.876,190.7C603.876,191.303 604.021,191.759 604.312,192.068C604.603,192.377 605.033,192.532 605.604,192.532C605.796,192.532 605.993,192.513 606.196,192.476C606.399,192.439 606.599,192.385 606.796,192.316L606.564,192.82L606.564,191.284L605.844,191.284C605.684,191.284 605.561,191.244 605.476,191.164C605.391,191.084 605.348,190.975 605.348,190.836C605.348,190.692 605.391,190.581 605.476,190.504C605.561,190.427 605.684,190.388 605.844,190.388L607.1,190.388C607.26,190.388 607.381,190.431 607.464,190.516C607.547,190.601 607.588,190.724 607.588,190.884L607.588,192.74C607.588,192.879 607.561,192.996 607.508,193.092C607.455,193.188 607.364,193.257 607.236,193.3C606.996,193.385 606.727,193.455 606.428,193.508C606.129,193.561 605.833,193.588 605.54,193.588Z" style="fill-rule:nonzero;"/>
        </g>
        <g transform="matrix(1.127571,0,0,1.014286,-557.275117,-152.586608)">
            <path d="M500.4,163.125C500.4,163.415 500.165,163.65 499.875,163.65C499.585,163.65 499.35,163.415 499.35,163.125L499.35,160.964C499.063,160.896 498.796,160.774 498.563,160.608C498.192,160.871 497.739,161.025 497.25,161.025C495.994,161.025 494.975,160.006 494.975,158.75C494.975,157.814 495.542,157.009 496.351,156.66C496.309,156.488 496.287,156.309 496.287,156.125C496.287,155.189 496.855,154.384 497.663,154.035C497.622,153.863 497.6,153.684 497.6,153.5C497.6,152.244 498.619,151.225 499.875,151.225C501.131,151.225 502.15,152.244 502.15,153.5C502.15,153.684 502.128,153.863 502.086,154.035C502.895,154.384 503.463,155.189 503.463,156.125C503.463,156.309 503.441,156.488 503.399,156.66C504.208,157.009 504.775,157.814 504.775,158.75C504.775,160.006 503.756,161.025 502.5,161.025C502.166,161.025 501.849,160.953 501.563,160.823C501.299,160.704 501.182,160.393 501.302,160.129C501.421,159.865 501.732,159.747 501.996,159.867C502.15,159.936 502.32,159.975 502.5,159.975C503.176,159.975 503.725,159.426 503.725,158.75C503.725,158.121 503.249,157.601 502.638,157.533C502.461,157.513 502.307,157.405 502.227,157.246C502.148,157.087 502.154,156.898 502.244,156.745C502.351,156.563 502.412,156.351 502.412,156.125C502.412,155.496 501.937,154.976 501.326,154.908C501.149,154.888 500.994,154.78 500.915,154.621C500.835,154.462 500.841,154.273 500.932,154.12C501.039,153.938 501.1,153.726 501.1,153.5C501.1,152.824 500.551,152.275 499.875,152.275C499.199,152.275 498.65,152.824 498.65,153.5C498.65,153.726 498.711,153.938 498.818,154.12C498.909,154.273 498.915,154.462 498.835,154.621C498.756,154.78 498.601,154.888 498.424,154.908C497.813,154.976 497.338,155.496 497.338,156.125C497.338,156.351 497.399,156.563 497.506,156.745C497.596,156.898 497.602,157.087 497.523,157.246C497.443,157.405 497.289,157.513 497.112,157.533C496.501,157.601 496.025,158.121 496.025,158.75C496.025,159.426 496.574,159.975 497.25,159.975C497.616,159.975 497.944,159.814 498.169,159.56C498.269,159.447 498.412,159.382 498.562,159.382C498.713,159.382 498.856,159.447 498.956,159.56C499.181,159.814 499.509,159.975 499.875,159.975C500.165,159.975 500.4,160.21 500.4,160.5L500.4,163.125Z" style="fill:rgb(5,150,105);"/>
        </g>
    </g>
</svg>
