<?xml version="1.0" encoding="UTF-8" standalone="no"?>
<!DOCTYPE svg PUBLIC "-//W3C//DTD SVG 1.1//EN" "http://www.w3.org/Graphics/SVG/1.1/DTD/svg11.dtd">
<svg width="100%" height="100%" viewBox="0 0 510 80" version="1.1" xmlns="http://www.w3.org/2000/svg" xmlns:xlink="http://www.w3.org/1999/xlink" xml:space="preserve" xmlns:serif="http://www.serif.com/" style="fill-rule:evenodd;clip-rule:evenodd;stroke-linejoin:round;stroke-miterlimit:2;">
    <g transform="matrix(1,0,0,1,-21.8478,-94.7016)">
        <g transform="matrix(76.5,0,0,76.5,200.051,159.702)">
            <path d="M0.261,-0.065L0.188,-0.065L0.188,-0.264L0.436,-0L0.552,-0L0.552,-0.065L0.475,-0.065L0.276,-0.279L0.46,-0.458L0.536,-0.458L0.536,-0.523L0.297,-0.523L0.297,-0.462L0.375,-0.462L0.188,-0.274L0.188,-0.773L0.03,-0.773L0.03,-0.705L0.105,-0.705L0.105,-0.065L0.032,-0.065L0.032,-0L0.261,-0L0.261,-0.065Z" style="fill:white;fill-rule:nonzero;"/>
        </g>
        <g transform="matrix(76.5,0,0,76.5,243.962,159.702)">
            <path d="M0.142,-0.631C0.173,-0.631 0.199,-0.656 0.199,-0.688C0.199,-0.72 0.173,-0.744 0.142,-0.744C0.111,-0.744 0.085,-0.72 0.085,-0.688C0.085,-0.656 0.111,-0.631 0.142,-0.631ZM0.263,-0L0.263,-0.065L0.188,-0.065L0.188,-0.523L0.03,-0.523L0.03,-0.455L0.105,-0.455L0.105,-0.065L0.032,-0.065L0.032,-0L0.263,-0Z" style="fill:white;fill-rule:nonzero;"/>
        </g>
        <g transform="matrix(76.5,0,0,76.5,265.764,159.702)">
            <path d="M0.285,-0.086C0.197,-0.086 0.124,-0.154 0.124,-0.268L0.124,-0.276C0.124,-0.386 0.186,-0.463 0.29,-0.463C0.392,-0.463 0.456,-0.395 0.456,-0.278L0.456,-0.271C0.456,-0.154 0.382,-0.086 0.285,-0.086ZM0.286,0.191C0.432,0.191 0.535,0.117 0.536,-0.035L0.536,-0.455L0.607,-0.455L0.607,-0.523L0.453,-0.523L0.453,-0.439C0.423,-0.49 0.369,-0.532 0.282,-0.532C0.138,-0.532 0.038,-0.414 0.038,-0.272L0.038,-0.265C0.038,-0.121 0.139,-0.017 0.276,-0.017C0.352,-0.017 0.423,-0.065 0.453,-0.116L0.453,-0.04C0.453,0.072 0.388,0.121 0.285,0.121C0.196,0.121 0.146,0.09 0.134,0.03L0.049,0.03C0.063,0.118 0.131,0.191 0.286,0.191Z" style="fill:white;fill-rule:nonzero;"/>
        </g>
        <g transform="matrix(76.5,0,0,76.5,313.653,159.702)">
            <path d="M0.437,-0.088L0.437,-0L0.593,-0L0.593,-0.065L0.52,-0.065L0.52,-0.523L0.364,-0.523L0.364,-0.455L0.437,-0.455L0.437,-0.207C0.437,-0.112 0.369,-0.063 0.297,-0.063C0.218,-0.063 0.178,-0.104 0.178,-0.195L0.178,-0.523L0.022,-0.523L0.022,-0.455L0.095,-0.455L0.095,-0.198C0.095,-0.047 0.172,0.009 0.275,0.009C0.356,0.009 0.413,-0.039 0.437,-0.088Z" style="fill:white;fill-rule:nonzero;"/>
        </g>
        <g transform="matrix(76.5,0,0,76.5,360.701,159.702)">
            <path d="M0.263,-0L0.263,-0.065L0.188,-0.065L0.188,-0.32C0.188,-0.414 0.255,-0.46 0.323,-0.46C0.395,-0.46 0.431,-0.422 0.431,-0.33L0.431,-0.065L0.356,-0.065L0.356,-0L0.589,-0L0.589,-0.065L0.514,-0.065L0.514,-0.32C0.514,-0.414 0.581,-0.46 0.649,-0.46C0.721,-0.46 0.757,-0.422 0.757,-0.33L0.757,-0.065L0.682,-0.065L0.682,-0L0.913,-0L0.913,-0.065L0.84,-0.065L0.84,-0.324C0.84,-0.476 0.761,-0.532 0.667,-0.532C0.602,-0.532 0.529,-0.499 0.494,-0.426C0.467,-0.504 0.408,-0.532 0.341,-0.532C0.266,-0.532 0.209,-0.487 0.188,-0.437L0.188,-0.523L0.03,-0.523L0.03,-0.455L0.105,-0.455L0.105,-0.065L0.032,-0.065L0.032,-0L0.263,-0Z" style="fill:white;fill-rule:nonzero;"/>
        </g>
        <g transform="matrix(76.5,0,0,76.5,432.228,159.702)">
            <path d="M0.142,-0.631C0.173,-0.631 0.199,-0.656 0.199,-0.688C0.199,-0.72 0.173,-0.744 0.142,-0.744C0.111,-0.744 0.085,-0.72 0.085,-0.688C0.085,-0.656 0.111,-0.631 0.142,-0.631ZM0.263,-0L0.263,-0.065L0.188,-0.065L0.188,-0.523L0.03,-0.523L0.03,-0.455L0.105,-0.455L0.105,-0.065L0.032,-0.065L0.032,-0L0.263,-0Z" style="fill:white;fill-rule:nonzero;"/>
        </g>
    </g>
    <path d="M80,55L80,20L140,20L140,55L117.5,55L122.5,40L97.5,40L102.5,55L80,55Z" style="fill:rgb(125,211,252);"/>
    <g transform="matrix(0.333333,-0.333333,0,1,113.333,26.6667)">
        <path d="M80,55L80,20L140,20L140,55L117.5,55L122.5,40L97.5,40L102.5,55L80,55Z" style="fill:rgb(56,189,248);"/>
    </g>
    <path d="M80,80L140,80L140,55L117.5,55L122.5,40L97.5,40L102.5,55L80,55L80,80Z" style="fill:rgb(3,105,161);"/>
    <g transform="matrix(0.333333,-0.333333,0,1,113.333,26.6667)">
        <path d="M80,80L140,80L140,55L117.5,55L122.5,40L97.5,40L102.5,55L80,55L80,80Z" style="fill:rgb(7,89,133);"/>
    </g>
    <path d="M80,20L100,0L160,0L140,20L80,20Z" style="fill:rgb(186,230,253);"/>
</svg>
